<svg width="25" height="24" viewBox="0 0 25 24" fill="none" xmlns="http://www.w3.org/2000/svg">
<path fill-rule="evenodd" clip-rule="evenodd" d="M12.7988 2C7.27583 2 2.79883 6.477 2.79883 12C2.79883 17.523 7.27583 22 12.7988 22C18.3218 22 22.7988 17.523 22.7988 12C22.7988 6.477 18.3218 2 12.7988 2ZM9.29883 9.5C9.29883 9.04037 9.38936 8.58525 9.56525 8.16061C9.74114 7.73597 9.99895 7.35013 10.324 7.02513C10.649 6.70012 11.0348 6.44231 11.4594 6.26642C11.8841 6.09053 12.3392 6 12.7988 6C13.2585 6 13.7136 6.09053 14.1382 6.26642C14.5629 6.44231 14.9487 6.70012 15.2737 7.02513C15.5987 7.35013 15.8565 7.73597 16.0324 8.16061C16.2083 8.58525 16.2988 9.04037 16.2988 9.5C16.2988 10.4283 15.9301 11.3185 15.2737 11.9749C14.6173 12.6313 13.7271 13 12.7988 13C11.8706 13 10.9803 12.6313 10.324 11.9749C9.66758 11.3185 9.29883 10.4283 9.29883 9.5ZM19.0568 16.984C18.308 17.9253 17.3563 18.6855 16.2728 19.2077C15.1892 19.7299 14.0017 20.0008 12.7988 20C11.596 20.0008 10.4085 19.7299 9.3249 19.2077C8.24132 18.6855 7.28964 17.9253 6.54083 16.984C8.16183 15.821 10.3738 15 12.7988 15C15.2238 15 17.4358 15.821 19.0568 16.984Z" fill="#A1A1A1"/>
</svg>
