<svg width="25" height="24" viewBox="0 0 25 24" fill="none" xmlns="http://www.w3.org/2000/svg">
<path d="M7.36044 2.421C8.63644 2.25 10.2684 2.25 12.3414 2.25H12.4554C14.5284 2.25 16.1604 2.25 17.4354 2.421C18.7454 2.597 19.7894 2.966 20.6104 3.788C21.4324 4.609 21.8004 5.654 21.9774 6.962C22.1484 8.238 22.1484 9.87 22.1484 11.943V12.057C22.1484 14.13 22.1484 15.762 21.9774 17.037C21.8014 18.347 21.4324 19.391 20.6104 20.212C19.7894 21.034 18.7444 21.402 17.4364 21.579C16.1604 21.75 14.5284 21.75 12.4554 21.75H12.3414C10.2684 21.75 8.63644 21.75 7.36144 21.579C6.05144 21.403 5.00744 21.034 4.18644 20.212C3.36444 19.391 2.99644 18.346 2.81944 17.038C2.64844 15.762 2.64844 14.13 2.64844 12.057V11.943C2.64844 9.87 2.64844 8.238 2.81944 6.963C2.99544 5.653 3.36444 4.609 4.18644 3.788C5.00744 2.966 6.05244 2.598 7.36044 2.421ZM12.1334 6.853C12.1016 6.69478 12.0195 6.55106 11.8995 6.44318C11.7794 6.33531 11.6278 6.26904 11.4671 6.25421C11.3064 6.23939 11.1452 6.2768 11.0074 6.3609C10.8697 6.44499 10.7627 6.57128 10.7024 6.721L8.89044 11.25H7.39844C7.19953 11.25 7.00876 11.329 6.86811 11.4697C6.72746 11.6103 6.64844 11.8011 6.64844 12C6.64844 12.1989 6.72746 12.3897 6.86811 12.5303C7.00876 12.671 7.19953 12.75 7.39844 12.75H9.39844C9.54833 12.7499 9.69476 12.7049 9.81881 12.6207C9.94287 12.5366 10.0389 12.4172 10.0944 12.278L11.1574 9.621L12.6634 17.147C12.6953 17.3052 12.7773 17.4489 12.8974 17.5568C13.0174 17.6647 13.1691 17.731 13.3298 17.7458C13.4905 17.7606 13.6517 17.7232 13.7895 17.6391C13.9272 17.555 14.0342 17.4287 14.0944 17.279L15.9064 12.75H17.3984C17.5974 12.75 17.7881 12.671 17.9288 12.5303C18.0694 12.3897 18.1484 12.1989 18.1484 12C18.1484 11.8011 18.0694 11.6103 17.9288 11.4697C17.7881 11.329 17.5974 11.25 17.3984 11.25H15.3984C15.2487 11.25 15.1023 11.2949 14.9783 11.3789C14.8542 11.4628 14.7582 11.582 14.7024 11.721L13.6384 14.38L12.1334 6.853Z" fill="#A1A1A1"/>
</svg>
