<svg width="80" height="80" viewBox="0 0 80 80" fill="none" xmlns="http://www.w3.org/2000/svg">
<g filter="url(#filter0_d_2415_3680)">
<rect x="12" y="12" width="56" height="56" rx="28" fill="url(#paint0_linear_2415_3680)"/>
<rect x="13" y="13" width="54" height="54" rx="27" stroke="white" stroke-width="2"/>
<path d="M30.666 35.3333V33C30.666 32.3811 30.9118 31.7876 31.3494 31.35C31.787 30.9125 32.3805 30.6666 32.9993 30.6666H35.3327M30.666 44.6666V47C30.666 47.6188 30.9118 48.2123 31.3494 48.6499C31.787 49.0875 32.3805 49.3333 32.9993 49.3333H35.3327M44.666 30.6666H46.9994C47.6182 30.6666 48.2117 30.9125 48.6493 31.35C49.0869 31.7876 49.3327 32.3811 49.3327 33V35.3333M44.666 49.3333H46.9994C47.6182 49.3333 48.2117 49.0875 48.6493 48.6499C49.0869 48.2123 49.3327 47.6188 49.3327 47V44.6666M34.166 40H45.8327" stroke="white" stroke-width="1.5" stroke-linecap="round" stroke-linejoin="round"/>
</g>
<defs>
<filter id="filter0_d_2415_3680" x="0" y="0" width="80" height="80" filterUnits="userSpaceOnUse" color-interpolation-filters="sRGB">
<feFlood flood-opacity="0" result="BackgroundImageFix"/>
<feColorMatrix in="SourceAlpha" type="matrix" values="0 0 0 0 0 0 0 0 0 0 0 0 0 0 0 0 0 0 127 0" result="hardAlpha"/>
<feOffset/>
<feGaussianBlur stdDeviation="6"/>
<feComposite in2="hardAlpha" operator="out"/>
<feColorMatrix type="matrix" values="0 0 0 0 0 0 0 0 0 0 0 0 0 0 0 0 0 0 0.15 0"/>
<feBlend mode="normal" in2="BackgroundImageFix" result="effect1_dropShadow_2415_3680"/>
<feBlend mode="normal" in="SourceGraphic" in2="effect1_dropShadow_2415_3680" result="shape"/>
</filter>
<linearGradient id="paint0_linear_2415_3680" x1="40" y1="68" x2="40" y2="1.88889" gradientUnits="userSpaceOnUse">
<stop stop-color="#0071CE"/>
<stop offset="1" stop-color="#B0D3F0"/>
</linearGradient>
</defs>
</svg>
