<svg width="21" height="20" viewBox="0 0 21 20" fill="none" xmlns="http://www.w3.org/2000/svg">
<path fill-rule="evenodd" clip-rule="evenodd" d="M0.719219 5.823C0.199219 6.77 0.199219 7.915 0.199219 10.203V11.725C0.199219 15.625 0.199219 17.576 1.37122 18.788C2.54322 20 4.42822 20 8.19922 20H12.1992C15.9702 20 17.8562 20 19.0272 18.788C20.1982 17.576 20.1992 15.626 20.1992 11.725V10.204C20.1992 7.915 20.1992 6.771 19.6792 5.823C19.1612 4.874 18.2122 4.286 16.3152 3.108L14.3152 1.867C12.3102 0.622 11.3072 0 10.1992 0C9.09122 0 8.08922 0.622 6.08322 1.867L4.08322 3.108C2.18622 4.286 1.23822 4.874 0.719219 5.823ZM9.44922 16C9.44922 16.1989 9.52824 16.3897 9.66889 16.5303C9.80954 16.671 10.0003 16.75 10.1992 16.75C10.3981 16.75 10.5889 16.671 10.7295 16.5303C10.8702 16.3897 10.9492 16.1989 10.9492 16V13C10.9492 12.8011 10.8702 12.6103 10.7295 12.4697C10.5889 12.329 10.3981 12.25 10.1992 12.25C10.0003 12.25 9.80954 12.329 9.66889 12.4697C9.52824 12.6103 9.44922 12.8011 9.44922 13V16Z" fill="#00559B"/>
</svg>
